# xmcd
#
# Track frame offsets: 
#        150
#        22279
#        45154
#        74108
#        96074
#        113263
#        136622
#        154268
#        176203
#        199877
#        220368
#        234147
#        249730
#        267838
#        293581
#
# Disc length: 4190 seconds
#
# Revision: 5
# Processed by: cddbd v1.5.2PL0 Copyright (c) Steve Scherf et al.
# Submitted via: ExactAudioCopy v1.0b3
#
DISCID=d4105c0f
DTITLE=Various Artist - Blue Cafe [CD 3)
DYEAR=2003
DGENRE=Chillout
TTITLE0=Tango Forte - Dublex Inc.
TTITLE1=Cha Cha - Mo'Horizons
TTITLE2=One Night In Rio - Louie Austen
TTITLE3=Fun For Me - Moloko
TTITLE4=The Richest Man In Babylon - Thievery Corporation
TTITLE5=Why Can't We Live tTgether (Sao Benitez Bv Dub) - Bukky Leo
TTITLE6=Dinosaurs - Bonobo
TTITLE7=Beneath Another Sky - Mystic Diversions
TTITLE8=Twighlight Reservation - Tim "Love" Lee
TTITLE9=Summertime (Vocal dub) - Athome Project
TTITLE10=Why Don't We Disappear - Gonzales feat. Sticky
TTITLE11=Gold Of The Sun - Temple Of Sound feat. Wendy Stubbs and Jah Wo
TTITLE11=bble
TTITLE12=O Que Sera-A- Flor Da Pele - Mystic Diversions
TTITLE13=Last Tango In Paris (Original Ballad) - Sepia
TTITLE14=Elevator - Jaffa
EXTD=Tsiplaki
EXTT0=
EXTT1=
EXTT2=
EXTT3=
EXTT4=
EXTT5=
EXTT6=
EXTT7=
EXTT8=
EXTT9=
EXTT10=
EXTT11=
EXTT12=
EXTT13=
EXTT14=
PLAYORDER=
